Coordinates
version=1
nRows=8
nColumns=36
inDegrees=yes

Units are S.I. units (second, meters, Newtons, ...)
If the header above contains a line with 'inDegrees', this indicates whether rotational values are in degrees (yes) or radians (no).

endheader
time	pelvis_tilt	pelvis_list	pelvis_rotation	pelvis_tx	pelvis_ty	pelvis_tz	hip_flexion_r	hip_adduction_r	hip_rotation_r	knee_angle_r	knee_angle_r_beta	ankle_angle_r	subtalar_angle_r	mtp_angle_r	hip_flexion_l	hip_adduction_l	hip_rotation_l	knee_angle_l	knee_angle_l_beta	ankle_angle_l	subtalar_angle_l	mtp_angle_l	lumbar_extension	lumbar_bending	lumbar_rotation	arm_flex_r	arm_add_r	arm_rot_r	elbow_flex_r	pro_sup_r	arm_flex_l	arm_add_l	arm_rot_l	elbow_flex_l	pro_sup_l
     45.00000000	      6.43541641	     -4.12616248	     -0.51728083	      0.56791349	      1.04125537	      0.76922827	     -1.98823581	      5.72205683	      2.22080823	     12.66887841	      0.22111364	     13.61496510	     -0.67057548	     -7.49999987	     13.71058130	     -6.79518711	     -0.60316983	     58.85969249	      1.02729543	      8.38203804	     -8.10558205	     -7.49999987	    -22.00222663	      6.21005304	      8.01300069	      6.37777984	    -19.04929579	      4.01562842	     36.23738997	     80.30510041	     10.28609178	    -10.63561514	     20.46325210	     21.05195636	     85.92160983
     45.01666670	      6.46731142	     -3.67894622	     -0.43870639	      0.56258600	      1.04144455	      0.77066766	     -3.30873633	      5.26007660	      1.87886859	     11.97177532	      0.20894690	     13.88355338	      0.21710572	     -7.49999987	     15.67859061	     -6.38108751	     -1.09385675	     56.58724160	      0.98763368	      9.32969320	     -7.60187136	     -7.49999987	    -22.46583976	      5.61464934	      7.67047480	      7.50185756	    -19.12673450	      4.09927190	     37.14655925	     82.55751346	      9.67541178	    -10.89274862	     19.28127485	     21.48416584	     90.14796193
     45.03333330	      6.43989333	     -3.32405929	     -0.43282583	      0.55906577	      1.04137319	      0.77184140	     -4.44421957	      4.89422216	      1.64798861	     11.44746973	      0.19979604	     13.93721521	      0.69353284	     -7.49999987	     17.19044985	     -6.10038831	     -1.59565218	     53.34975558	      0.93112889	      9.97414233	     -7.11962092	     -7.49999987	    -22.81233932	      5.05441009	      7.64051282	      8.47825161	    -19.24933569	      4.16014385	     37.89953475	     82.60514722	      9.54737791	    -10.86033903	     19.07380879	     21.24395324	     90.26370499
     45.05000000	      6.39763950	     -3.10371450	     -0.47167622	      0.55720653	      1.04143913	      0.77344516	     -5.49771098	      4.64875063	      1.38762223	     10.99669833	      0.19192859	     13.86447119	      1.10790547	     -7.49999987	     18.29059353	     -5.95125469	     -1.99656845	     49.44114438	      0.86291076	     10.12824913	     -6.65267733	     -7.49999987	    -23.17459218	      4.61939690	      7.67532511	      9.45942063	    -19.56272075	      4.61665827	     38.61593748	     82.74621214	      9.42870750	    -10.83644752	     18.78483070	     21.30387365	     90.45302619
     45.06666670	      6.05450019	     -3.01791262	     -0.55362924	      0.55550967	      1.04147736	      0.77504678	     -6.20537110	      4.55746624	      1.26463732	     10.51866953	      0.18358542	     13.71028094	      1.27708595	     -7.49999987	     19.48436730	     -5.94058035	     -2.28403681	     45.15265677	      0.78806253	      9.99247217	     -6.03348069	     -7.49999987	    -23.16235060	      4.31449739	      7.79712446	     10.27874998	    -19.83681572	      4.86121296	     39.13930712	     82.85592868	      9.38488302	    -10.76356573	     18.65561945	     21.25452343	     90.63050410
     45.08333330	      5.91207321	     -3.01577436	     -0.65812380	      0.55279433	      1.04165770	      0.77511549	     -7.16991348	      4.53209412	      1.17807044	      9.84148148	      0.17176626	     13.69411277	      1.58052762	     -7.49999987	     20.33071235	     -5.97638741	     -2.46378878	     40.57250804	      0.70812385	      9.60012265	     -5.29376435	     -7.49999987	    -23.54792352	      4.12618975	      7.64211886	     11.36893565	    -20.30708114	      5.96165032	     39.92833027	     82.77608298	      9.07132257	    -10.74850400	     17.78649826	     21.91321729	     90.57527295
     45.10000000	      5.41166395	     -3.03654053	     -0.74856484	      0.54988949	      1.03997644	      0.77342093	     -7.79122337	      4.51606649	      1.06402662	      9.01690775	      0.15737473	     13.84056731	      1.86098963	     -7.49999987	     21.47869115	     -5.99524044	     -2.54557055	     35.77119163	      0.62432507	      9.14198280	     -4.22878801	     -7.49999987	    -23.31235011	      3.97380623	      7.69477518	     12.14055457	    -20.62382286	      6.17146648	     40.27177479	     83.04600288	      9.20361765	    -10.54052882	     17.61882444	     21.67904027	     91.04402092
     45.11666670	      4.91049384	     -3.23260675	     -0.77098776	      0.54751722	      1.03666553	      0.77103312	     -8.50975522	      4.67002388	      0.98179924	      8.01817378	      0.13994353	     14.16946222	      2.11580948	     -7.49999987	     22.60659883	     -6.08446778	     -2.36099598	     30.88027671	      0.53896250	      8.70678633	     -3.04163743	     -7.49999987	    -23.13397189	      4.16617786	      7.73971207	     12.93112334	    -21.05188206	      6.24079035	     40.53222803	     83.40444182	      9.34494568	    -10.12892026	     17.52181331	     21.29097604	     91.61920506
